<?xml version="1.0" encoding="UTF-8" standalone="no"?>
<svg
   xmlns:dc="http://purl.org/dc/elements/1.1/"
   xmlns:cc="http://creativecommons.org/ns#"
   xmlns:rdf="http://www.w3.org/1999/02/22-rdf-syntax-ns#"
   xmlns:svg="http://www.w3.org/2000/svg"
   xmlns="http://www.w3.org/2000/svg"
   xmlns:sodipodi="http://sodipodi.sourceforge.net/DTD/sodipodi-0.dtd"
   xmlns:inkscape="http://www.inkscape.org/namespaces/inkscape"
   version="1.1"
   id="svg2"
   xml:space="preserve"
   width="1320"
   height="1320"
   viewBox="0 0 1320 1320"
   sodipodi:docname="icon-mobile.eps"><metadata
     id="metadata8"><rdf:RDF><cc:Work
         rdf:about=""><dc:format>image/svg+xml</dc:format><dc:type
           rdf:resource="http://purl.org/dc/dcmitype/StillImage" /></cc:Work></rdf:RDF></metadata><defs
     id="defs6" /><sodipodi:namedview
     pagecolor="#ffffff"
     bordercolor="#666666"
     borderopacity="1"
     objecttolerance="10"
     gridtolerance="10"
     guidetolerance="10"
     inkscape:pageopacity="0"
     inkscape:pageshadow="2"
     inkscape:window-width="640"
     inkscape:window-height="480"
     id="namedview4" /><g
     id="g10"
     inkscape:groupmode="layer"
     inkscape:label="ink_ext_XXXXXX"
     transform="matrix(1.3333333,0,0,-1.3333333,0,1320)"><g
       id="g12"
       transform="scale(0.1)"><path
         d="m 4949.95,154.262 c 2648.67,0 4795.79,2147.118 4795.79,4795.788 0,2648.56 -2147.12,4795.7 -4795.79,4795.7 -2648.56,0 -4795.696,-2147.14 -4795.696,-4795.7 0,-2648.67 2147.136,-4795.788 4795.696,-4795.788 v 0"
         style="fill:#f4f5f5;fill-opacity:1;fill-rule:nonzero;stroke:none"
         id="path14" /><path
         d="M 4949.95,154.262 V 0 C 7683.87,0.101563 9899.89,2216.14 9900,4950.05 9899.89,7683.87 7683.87,9899.89 4949.95,9900 2216.13,9899.89 0.105469,7683.87 0,4950.05 0.105469,2216.14 2216.13,0.101563 4949.95,0 v 154.262 154.25 C 3667.78,308.609 2508.4,827.84 1667.91,1668.01 827.734,2508.4 308.512,3667.78 308.512,4950.05 c 0,1282.17 519.222,2441.55 1359.398,3282.04 840.49,840.18 1999.87,1359.29 3282.04,1359.4 1282.17,-0.11 2441.65,-519.22 3282.04,-1359.4 C 9072.16,7391.6 9591.38,6232.22 9591.49,4950.05 9591.38,3667.78 9072.16,2508.4 8231.99,1668.01 7391.6,827.84 6232.12,308.609 4949.95,308.512 v -154.25 0"
         style="fill:#66c430;fill-opacity:1;fill-rule:nonzero;stroke:none"
         id="path16" /><path
         d="m 4361.82,2455.75 c -114.04,0 -206.69,92.65 -206.69,206.69 0,113.94 92.65,206.6 206.69,206.6 113.95,0 206.7,-92.66 206.7,-206.6 0,-114.04 -92.75,-206.69 -206.7,-206.69 z m 0,619.99 c -227.98,0 -413.4,-185.41 -413.4,-413.3 0,-227.98 185.42,-413.4 413.4,-413.4 228,0 413.3,185.42 413.3,413.4 0,227.89 -185.3,413.3 -413.3,413.3 v 0"
         style="fill:#3a3d42;fill-opacity:1;fill-rule:nonzero;stroke:none"
         id="path18" /><path
         d="m 4361.82,2455.75 v 27.65 c -98.72,0.22 -178.83,80.32 -179.03,179.04 0.2,98.62 80.31,178.73 179.03,178.95 98.62,-0.22 178.84,-80.33 178.94,-178.95 -0.1,-98.72 -80.32,-178.82 -178.94,-179.04 v -27.65 -27.78 c 129.37,0.11 234.27,105.11 234.37,234.47 -0.1,129.27 -105,234.27 -234.37,234.37 -129.37,-0.1 -234.36,-105.1 -234.36,-234.37 0,-129.36 104.99,-234.36 234.36,-234.47 v 27.78 z m 0,619.99 v 27.77 c -243.31,-0.1 -441.06,-197.86 -441.06,-441.07 0,-243.31 197.75,-441.06 441.06,-441.06 243.31,0 440.97,197.75 441.07,441.06 -0.1,243.21 -197.76,440.97 -441.07,441.07 v -27.77 -27.66 c 106.44,0 202.7,-43.19 272.62,-113.12 69.83,-69.92 113.02,-166.18 113.02,-272.52 0,-106.43 -43.19,-202.69 -113.02,-272.62 -69.92,-69.82 -166.18,-113.01 -272.62,-113.01 -106.43,0 -202.68,43.19 -272.62,113.01 -69.82,69.93 -113.01,166.19 -113.01,272.62 0,106.34 43.19,202.6 113.01,272.52 69.94,69.93 166.19,113.12 272.62,113.12 v 27.66 0"
         style="fill:#3a3d42;fill-opacity:1;fill-rule:nonzero;stroke:none"
         id="path20" /><path
         d="m 3948.42,7622.78 h 413.4 c 57.18,0 103.35,46.17 103.35,103.46 0,57.07 -46.17,103.24 -103.35,103.24 h -413.4 c -57.07,0 -103.35,-46.17 -103.35,-103.24 0,-57.29 46.28,-103.46 103.35,-103.46 v 0"
         style="fill:#3a3d42;fill-opacity:1;fill-rule:nonzero;stroke:none"
         id="path22" /><path
         d="m 3948.42,7622.78 v -27.66 h 413.4 c 72.4,0.1 130.92,58.61 131.02,131.12 -0.1,72.39 -58.62,130.8 -131.02,131.01 h -413.4 c -72.4,-0.21 -130.91,-58.62 -131.01,-131.01 0.1,-72.51 58.61,-131.02 131.01,-131.12 v 27.66 27.76 c -41.85,0 -75.58,33.74 -75.69,75.7 0.11,41.85 33.84,75.58 75.69,75.58 h 413.4 c 41.86,0 75.59,-33.73 75.59,-75.58 0,-41.96 -33.73,-75.7 -75.59,-75.7 h -413.4 v -27.76 0"
         style="fill:#3a3d42;fill-opacity:1;fill-rule:nonzero;stroke:none"
         id="path24" /><path
         d="m 4671.88,7622.78 h 103.24 c 57.18,0 103.46,46.17 103.46,103.46 0,57.07 -46.28,103.24 -103.46,103.24 h -103.24 c -57.18,0 -103.36,-46.17 -103.36,-103.24 0,-57.29 46.18,-103.46 103.36,-103.46 v 0"
         style="fill:#3a3d42;fill-opacity:1;fill-rule:nonzero;stroke:none"
         id="path26" /><path
         d="m 4671.88,7622.78 v -27.66 h 103.24 c 72.51,0.1 131.02,58.61 131.12,131.12 -0.1,72.39 -58.61,130.8 -131.12,131.01 h -103.24 c -72.4,-0.21 -130.92,-58.62 -131.12,-131.01 0.2,-72.51 58.72,-131.02 131.12,-131.12 v 27.66 27.76 c -41.96,0 -75.69,33.74 -75.69,75.7 0,41.85 33.73,75.58 75.69,75.58 h 103.24 c 41.96,0 75.69,-33.73 75.69,-75.58 0,-41.96 -33.73,-75.7 -75.69,-75.7 h -103.24 v -27.76 0"
         style="fill:#3a3d42;fill-opacity:1;fill-rule:nonzero;stroke:none"
         id="path28" /><path
         d="m 2703.17,3564.63 c -54.2,0 -98.21,44.01 -98.21,98.21 v 3215.81 c 0,54.3 44.01,98.21 98.21,98.21 54.3,0 98.21,-43.91 98.21,-98.21 V 3662.84 c 0,-54.2 -43.91,-98.21 -98.21,-98.21 v 0"
         style="fill:#3a3d42;fill-opacity:1;fill-rule:nonzero;stroke:none"
         id="path30" /><path
         d="m 2703.17,3564.63 v 27.66 c -38.87,0.11 -70.45,31.58 -70.45,70.55 v 3215.81 c 0,38.98 31.58,70.45 70.45,70.55 38.98,-0.1 70.44,-31.57 70.54,-70.55 V 3662.84 c -0.1,-38.97 -31.56,-70.44 -70.54,-70.55 v -27.66 -27.76 c 69.62,0.09 125.87,56.45 125.87,125.97 v 3215.81 c 0,69.52 -56.25,125.88 -125.87,125.88 -69.52,0 -125.88,-56.36 -125.88,-125.88 V 3662.84 c 0,-69.52 56.36,-125.88 125.88,-125.97 v 27.76 0"
         style="fill:#3a3d42;fill-opacity:1;fill-rule:nonzero;stroke:none"
         id="path32" /><path
         d="M 5911.99,7519.53 H 2811.66 v 164.75 c 0,137.28 111.27,248.55 248.56,248.55 h 2603.11 c 137.28,0 248.66,-111.27 248.66,-248.65 v -164.65 z m 0,-5125.29 c 0,-137.28 -111.27,-248.55 -248.56,-248.55 H 4586.11 4445.43 3060.22 c -137.29,0 -248.56,111.27 -248.56,248.55 V 3179.1 H 5911.99 V 2394.24 Z M 5663.43,8139.53 H 3060.22 c -251.44,0 -455.26,-203.82 -455.26,-455.25 v -371.45 h 206.7 3100.33 V 3385.8 H 2811.66 v -0.31 h -206.7 v -991.14 c 0,-251.44 203.93,-455.36 455.36,-455.36 h 1385.11 140.68 1077.22 c 251.44,0 455.26,203.92 455.26,455.36 v 5289.93 c 0,251.43 -203.82,455.25 -455.16,455.25 v 0"
         style="fill:#3a3d42;fill-opacity:1;fill-rule:nonzero;stroke:none"
         id="path34" /><path
         d="m 5911.99,7519.53 v 27.66 H 2839.32 v 137.09 c 0.31,122.06 98.94,220.68 220.9,220.89 h 2603.11 c 121.96,-0.21 220.69,-98.93 220.89,-220.99 v -164.65 h 27.77 v 27.66 -27.66 h 27.66 v 164.65 c 0,152.6 -123.71,276.31 -276.32,276.42 H 3060.22 C 2907.61,7960.6 2784,7836.89 2784,7684.28 v -192.52 h 3155.65 v 27.77 h -27.66 z m 0,-5125.29 h -27.77 c -0.2,-121.96 -98.83,-220.69 -220.79,-220.89 H 4586.11 4445.43 3060.22 c -121.96,0.2 -220.59,98.93 -220.9,220.89 v 757.19 h 3044.9 v -757.19 h 27.77 27.66 v 812.62 H 2784 v -812.62 c 0,-152.6 123.61,-276.22 276.22,-276.22 h 1385.21 140.68 1077.32 c 152.51,0 276.22,123.62 276.22,276.22 h -27.66 z m -248.56,5745.29 v 27.67 H 3060.22 c -266.66,0 -482.93,-216.17 -482.93,-482.92 v -399.22 h 234.37 3072.56 V 3413.57 H 2784 v -0.42 h -206.71 v -1018.8 c 0,-266.76 216.27,-483.03 483.03,-483.03 h 1385.11 140.68 1077.22 c 266.75,0 483.02,216.27 483.02,483.03 v 5289.93 c 0,266.75 -216.27,482.92 -482.92,482.92 v -27.67 -27.66 c 118.06,0 224.8,-47.82 302.24,-125.25 77.43,-77.44 125.25,-184.19 125.25,-302.34 V 2394.35 c 0,-118.16 -47.82,-224.91 -125.25,-302.34 -77.44,-77.44 -184.18,-125.25 -302.34,-125.25 H 4586.11 4445.43 3060.32 c -118.16,0 -224.9,47.81 -302.34,125.25 -77.44,77.43 -125.26,184.18 -125.26,302.34 v 963.48 h 206.6 v 0.31 H 5939.65 V 7340.49 H 2811.66 2632.72 v 343.79 c 0,118.15 47.82,224.9 125.16,302.34 77.54,77.43 184.18,125.25 302.34,125.25 h 2603.21 v 27.66 0"
         style="fill:#3a3d42;fill-opacity:1;fill-rule:nonzero;stroke:none"
         id="path36" /><path
         d="m 6146.35,3889.9 c 736.52,0 1333.7,597.08 1333.7,1333.69 0,736.52 -597.18,1333.7 -1333.7,1333.7 -736.62,0 -1333.69,-597.18 -1333.69,-1333.7 0,-736.61 597.07,-1333.69 1333.69,-1333.69 v 0"
         style="fill:#e9ebec;fill-opacity:1;fill-rule:nonzero;stroke:none"
         id="path38" /><path
         d="m 6146.35,3889.9 v -110.75 c 797.81,0 1444.35,646.63 1444.45,1444.44 -0.1,797.82 -646.64,1444.45 -1444.45,1444.45 -797.81,0 -1444.45,-646.63 -1444.55,-1444.45 0.1,-797.81 646.74,-1444.44 1444.55,-1444.44 v 110.75 110.76 c -338.13,0.1 -643.14,136.67 -864.75,358.18 -221.51,221.71 -358.18,526.73 -358.18,864.75 0,338.03 136.67,643.05 358.18,864.76 221.61,221.41 526.62,358.08 864.75,358.18 338.03,-0.1 643.04,-136.77 864.76,-358.18 221.4,-221.71 358.08,-526.73 358.17,-864.76 -0.09,-338.02 -136.77,-643.04 -358.17,-864.75 -221.72,-221.51 -526.73,-358.08 -864.76,-358.18 v -110.76 0"
         style="fill:#3a3d42;fill-opacity:1;fill-rule:nonzero;stroke:none"
         id="path40" /><path
         d="m 6026.14,4704.57 c -23.35,0 -45.66,9.16 -62.12,25.21 l -465.54,455.56 c -34.35,33.53 -34.35,88.03 0,121.66 34.35,33.52 89.98,33.52 124.33,0 l 403.33,-394.79 757.8,741.65 c 34.35,33.53 89.98,33.53 124.33,0 34.35,-33.62 34.35,-88.13 0,-121.65 l -820.02,-802.43 c -16.45,-16.05 -38.77,-25.21 -62.11,-25.21 v 0"
         style="fill:#66c430;fill-opacity:1;fill-rule:nonzero;stroke:none"
         id="path42" /><path
         d="m 6026.14,4704.57 v 142.95 -54.09 l 37.63,38.56 c -10.49,10.18 -23.85,15.53 -37.63,15.53 v -54.09 l 37.63,38.56 -465.43,455.47 -40.32,-41.34 h 57.49 c 0.21,15.11 -6.38,30.95 -17.07,41.34 l -40.42,-41.34 h 57.49 -57.9 l 40.42,-41.55 c 11.2,10.69 17.69,26.94 17.48,41.55 h -57.9 l 40.42,-41.55 0.51,0.52 -38.05,38.66 0.11,-54.3 c 12.95,-0.2 27.24,5.14 37.94,15.64 l -38.05,38.66 0.11,-54.3 v 53.99 l -37.75,-38.46 c 10.49,-10.39 24.99,-15.73 37.75,-15.53 v 53.99 l -37.75,-38.46 503.18,-492.48 857.87,839.25 -37.85,38.87 v -54.3 c 13.06,-0.1 27.25,5.15 37.95,15.64 l -37.95,38.66 v -54.3 54.3 l -37.84,-38.66 c 10.7,-10.49 25.19,-15.84 37.84,-15.64 v 54.3 l -37.84,-38.66 0.21,-0.21 40.41,41.34 h -57.69 c -0.21,-14.91 6.38,-30.95 17.28,-41.34 l 40.41,41.34 h -57.69 57.18 l -40.32,40.93 c -10.38,-10.08 -17.07,-25.92 -16.86,-40.93 h 57.18 l -40.32,40.93 0.31,0.3 -819.92,-802.33 37.75,-38.66 v 54.19 c -13.89,-0.1 -27.15,-5.24 -37.75,-15.53 l 37.75,-38.66 v 54.19 -142.95 -142.73 c 60.46,0 118.46,23.35 162.06,65.92 l 820.03,802.43 0.31,0.32 c 44.63,43.8 68.49,103.55 68.28,162.58 0.21,58.92 -23.55,118.98 -68.69,162.89 l 0.2,-0.1 c -45.04,44.22 -104.59,66.23 -162.28,66.12 -57.89,0.11 -117.13,-22 -162.07,-66.12 l -657.84,-643.65 -303.48,296.89 c -44.93,44.11 -104.37,66.12 -162.06,66.02 -58,0.1 -117.24,-22.11 -162.18,-66.24 l 0.41,0.52 c -45.56,-44.11 -69.21,-104.48 -69,-163.3 -0.1,-58.93 23.65,-118.77 68.69,-162.79 l 465.55,-455.57 c 43.49,-42.47 101.6,-65.92 162.07,-65.92 v 142.73 0"
         style="fill:#66c430;fill-opacity:1;fill-rule:nonzero;stroke:none"
         id="path44" /></g></g></svg>
